<?xml version="1.0" encoding="UTF-8" standalone="no"?>
<!-- Generator: Adobe Illustrator 21.0.0, SVG Export Plug-In . SVG Version: 6.00 Build 0)  -->

<svg
   xmlns:dc="http://purl.org/dc/elements/1.1/"
   xmlns:cc="http://creativecommons.org/ns#"
   xmlns:rdf="http://www.w3.org/1999/02/22-rdf-syntax-ns#"
   xmlns:svg="http://www.w3.org/2000/svg"
   xmlns="http://www.w3.org/2000/svg"
   xmlns:sodipodi="http://sodipodi.sourceforge.net/DTD/sodipodi-0.dtd"
   xmlns:inkscape="http://www.inkscape.org/namespaces/inkscape"
   version="1.1"
   id="Layer_1"
   x="0px"
   y="0px"
   viewBox="0 0 201 198"
   style="enable-background:new 0 0 201 198;"
   xml:space="preserve"
   sodipodi:docname="bus_red.svg"
   inkscape:version="0.92.4 (5da689c313, 2019-01-14)"><metadata
   id="metadata4725"><rdf:RDF><cc:Work
       rdf:about=""><dc:format>image/svg+xml</dc:format><dc:type
         rdf:resource="http://purl.org/dc/dcmitype/StillImage" /></cc:Work></rdf:RDF></metadata><defs
   id="defs4723">
	
	
	
	
	
	
</defs><sodipodi:namedview
   pagecolor="#ffffff"
   bordercolor="#666666"
   borderopacity="1"
   objecttolerance="10"
   gridtolerance="10"
   guidetolerance="10"
   inkscape:pageopacity="0"
   inkscape:pageshadow="2"
   inkscape:window-width="1920"
   inkscape:window-height="1017"
   id="namedview4721"
   showgrid="false"
   inkscape:zoom="3.3712566"
   inkscape:cx="83.462815"
   inkscape:cy="84.395687"
   inkscape:window-x="-8"
   inkscape:window-y="-8"
   inkscape:window-maximized="1"
   inkscape:current-layer="Layer_1" />
<style
   type="text/css"
   id="style4704">
	.st0{fill:#EE3124;}
	.st1{fill:#FFFFFF;}
</style>
<path
   style="fill:#bd6f6f"
   inkscape:connector-curvature="0"
   id="path4706"
   d="M 0,99.2 C 0,44.6 44.8,0.4 100.2,0.4 c 55.4,0 100.2,44.2 100.2,98.8 0,54.5 -44.8,98.8 -100.2,98.8 C 44.8,198 0,153.7 0,99.2"
   class="st0" /><path
   style="fill:#fff;fill-opacity:1"
   inkscape:connector-curvature="0"
   id="path4708"
   d="m 105.1,152.4 h 21.8 v 5.9 10.6 c 0,0 1.1,4.9 5,4.9 h 4.8 c 3.9,0 5,-4.9 5,-4.9 v -8.6 -2 -5.9 c 12.6,-1.2 12.7,-11.1 12.7,-11.1 V 97.5 C 154.4,95.9 154,89 154,89 l -3.1,-34.9 c -0.5,-10 -8,-12.3 -8,-12.3 -16,-8.1 -31.3,-9.4 -31.3,-9.4 h -8.4 -6 -8.5 c 0,0 -15.3,1.3 -31.2,9.5 0,0 -7.6,2.3 -8.1,12.3 l -3,34.9 c 0,0 -0.4,6.8 -0.4,8.5 v 43.8 c 0,0 0.2,9.9 12.7,11.1 v 5.9 2 8.6 c 0,0 1.1,4.9 5,4.9 h 4.7 c 3.9,0 5,-4.9 5,-4.9 v -10.6 -5.9 h 21.8 9.9 z"
   class="st1" /><path
   style="fill:#bd6f6f"
   inkscape:connector-curvature="0"
   id="path4710"
   d="m 61.3,130.4 c 4,0 7.4,-3.2 7.4,-7.2 0,-4.1 -3.4,-7.3 -7.4,-7.3 -4.1,0 -7.5,3.2 -7.5,7.3 0,4 3.4,7.2 7.5,7.2"
   class="st0" /><path
   style="fill:#bd6f6f"
   inkscape:connector-curvature="0"
   id="path4712"
   d="m 139.1,130.4 c -4.1,0 -7.4,-3.2 -7.4,-7.2 0,-4.1 3.4,-7.3 7.4,-7.3 4,0 7.5,3.2 7.5,7.3 -0.1,4 -3.5,7.2 -7.5,7.2"
   class="st0" /><path
   style="fill:#bd6f6f"
   inkscape:connector-curvature="0"
   id="path4714"
   d="m 106.4,97.3 h 33.5 c 6.3,0 6.9,-7.2 6.9,-7.2 0,0 -1.5,-15.3 -2.3,-22.8 -0.9,-7.5 -7.6,-7.1 -7.6,-7.1 H 106.2 94.1 63.4 c 0,0 -6.7,-0.4 -7.6,7.1 -0.8,7.4 -2.3,22.8 -2.3,22.8 0,0 0.6,7.2 6.9,7.2 h 33.4 z"
   class="st0" /><path
   style="fill:#bd6f6f"
   inkscape:connector-curvature="0"
   id="path4716"
   d="m 123.9,55.8 c 3.3,0 5.9,-2.6 5.9,-5.8 0,-3 -2.5,-5.7 -5.9,-5.7 H 76.4 c -3.2,0 -5.8,2.6 -5.8,5.7 0,3.3 2.6,5.8 5.8,5.8 0,0 47.5,0 47.5,0 z"
   class="st0" />
</svg>